<svg width="184" height="65" viewBox="0 0 184 65" fill="none" xmlns="http://www.w3.org/2000/svg">
<path d="M35.5939 33.4249C29.9085 33.4358 24.8342 39.0536 23.3414 44.1606C21.5277 50.3589 33.0338 46.4239 35.5939 46.5003C38.154 46.4239 49.6601 50.3589 47.8465 44.1606C46.3536 39.0536 41.2771 33.4358 35.5939 33.4249ZM33.61 39.5468C32.9509 39.9986 31.7745 39.776 30.9692 39.0667C30.1551 38.3486 30.0373 37.4102 30.6876 36.9584C31.338 36.5066 32.5297 36.7292 33.3285 37.4385C34.136 38.1544 34.2604 39.1016 33.61 39.5468ZM40.2164 39.0645C39.4111 39.776 38.2325 39.9964 37.5756 39.5446C36.9252 39.0994 37.0496 38.1544 37.8572 37.4364C38.656 36.727 39.8476 36.5044 40.498 36.9562C41.1505 37.408 41.0327 38.3486 40.2164 39.0645Z" fill="white"/>
<path d="M4.22532 24.9307C1.88786 25.3236 0 27.661 0 30.088V36.5263C0 38.962 1.88786 41.2929 4.22532 41.6836C4.59416 41.7447 4.92808 41.4675 4.92808 41.0921V33.3072V25.5222C4.92808 25.1468 4.59416 24.8674 4.22532 24.9307Z" fill="white"/>
<path d="M49.5851 23.0275C45.9513 20.5482 40.7569 21.6656 36.9899 23.3374C36.1169 23.7106 35.0694 23.7106 34.1942 23.3374C30.4272 21.6656 25.2328 20.5482 21.599 23.0275C19.6173 24.3807 18.1659 26.8098 17.8167 29.1844C17.4238 31.8863 18.6962 32.624 19.949 30.0879C21.4287 27.0673 25.0691 25.7578 28.3407 26.417C31.1736 26.9975 32.2692 29.1931 35.591 29.1625C38.9127 29.1931 40.0105 26.9975 42.8412 26.417C46.1106 25.7578 49.7532 27.0673 51.2329 30.0879C52.4835 32.6262 53.7559 31.8863 53.3652 29.1844C53.0182 26.8098 51.5669 24.3829 49.5851 23.0275Z" fill="white"/>
<path d="M9.85546 19.7123C16.3157 12.7261 26.246 9.57462 35.5784 9.61827C44.9108 9.57462 54.8673 12.7261 61.3275 19.7123C61.7749 20.1968 62.5453 19.7036 62.3271 19.099C58.1018 7.70858 47.8724 0 35.5915 0C23.3128 0 13.0834 7.70858 8.85588 19.099C8.63981 19.7036 9.40805 20.1968 9.85546 19.7123Z" fill="white"/>
<path d="M35.5789 48.9644C34.0555 48.9644 27.2461 49.4467 27.2461 51.8344C27.2461 54.2133 33.8787 54.7066 35.592 54.7066C37.3052 54.7066 43.9378 54.2133 43.9378 51.8344C43.94 49.4467 37.1044 48.9644 35.5789 48.9644Z" fill="white"/>
<path d="M35.5957 13.4529C20.1872 13.4529 8.20312 23.9704 8.20312 39.7455C8.20312 55.0339 21.9289 64.3139 35.5957 64.2986C49.2625 64.3139 62.9882 55.0339 62.9882 39.7455C62.9882 23.9704 51.0041 13.4529 35.5957 13.4529ZM35.5957 59.6063C24.0044 59.7154 10.9029 52.7183 10.9029 39.7455C10.9029 24.9373 21.0253 15.7249 35.5957 15.7249C50.166 15.7249 60.2885 24.9373 60.2885 39.7455C60.2885 52.7183 47.1869 59.7154 35.5957 59.6063Z" fill="white"/>
<path d="M66.9606 24.9307C66.5917 24.8695 66.2578 25.1489 66.2578 25.5221V33.3071V41.0921C66.2578 41.4675 66.5939 41.7468 66.9606 41.6835C69.298 41.2928 71.1859 38.9598 71.1859 36.5263V30.0879C71.1859 27.661 69.298 25.3213 66.9606 24.9307Z" fill="white"/>
<path d="M108.801 23.8329C108.812 23.6278 108.827 23.4292 108.827 23.2109C108.827 22.9905 108.812 22.7897 108.799 22.5845C108.69 20.736 108.103 19.4963 107.195 18.6822C106.968 18.4793 106.725 18.2937 106.461 18.141C106.736 17.938 106.983 17.7001 107.206 17.4338C107.856 16.6569 108.273 15.6027 108.373 14.1645C108.389 13.9418 108.397 13.7127 108.397 13.4726C108.397 13.2631 108.382 13.071 108.371 12.8768C108.096 8.29572 104.641 7.26776 100.104 7.26776H86.0332V8.50524V28.4664V29.7235H100.104C104.997 29.7235 108.522 28.6672 108.801 23.8329ZM91.9019 15.1357V13.1147V11.8772H100.167C101.422 11.8772 102.417 12.2744 102.659 13.5446C102.697 13.7367 102.716 13.9462 102.716 14.1797C102.716 14.4045 102.694 14.6053 102.662 14.7908C102.457 15.9323 101.627 16.3906 100.228 16.3906H91.9019V15.1357ZM91.9019 23.6125V21.3776V20.1401H100.35C101.717 20.1401 102.638 20.5374 102.852 21.8425C102.882 22.0345 102.9 22.2441 102.9 22.4754C102.9 22.698 102.882 22.901 102.852 23.0865C102.627 24.4877 101.586 24.8718 100.257 24.8718H91.8998V23.6125H91.9019Z" fill="white"/>
<path d="M117.368 28.4663V21.8381V20.6006C117.368 19.6185 117.921 19.2191 119.488 19.2191H122.067V17.962V16.7398V15.5023H118.78C113.649 15.5023 111.838 16.7921 111.838 20.3256V21.5631V28.4685V29.7256H117.368V28.4663Z" fill="white"/>
<path d="M128.457 29.7234H140.254V28.4663V22.4819V21.2444C140.254 17.2505 138.134 15.5001 131.561 15.5001H125.447V16.7376V17.807V19.0641H131.345C133.521 19.0641 134.54 19.2998 134.987 19.8345C135.229 20.1226 135.308 20.4958 135.308 20.9694V21.0917H135.002H128.457C124.797 21.0917 123.586 21.9188 123.437 24.5858C123.426 24.7844 123.42 24.9896 123.42 25.2078C123.42 25.4261 123.426 25.6313 123.437 25.832C123.584 28.5754 124.793 29.7234 128.457 29.7234ZM128.285 24.4811C128.431 23.9987 128.815 23.8263 129.594 23.8263H135.308V25.0638V25.21V26.4671H129.594C128.811 26.4671 128.424 26.2598 128.28 25.7251C128.232 25.5483 128.213 25.3366 128.213 25.0834C128.213 24.8434 128.235 24.6448 128.285 24.4811Z" fill="white"/>
<path d="M157.026 21.8904V23.1279V28.4663V29.7234H162.556V28.4663V22.4514V21.2139C162.556 17.2505 160.468 15.5001 154.385 15.5001H144.125V16.7376V28.4663V29.7234H149.653V28.4663V21.1615V19.924H154.385C156.443 19.924 157.026 20.4784 157.026 21.8904Z" fill="white"/>
<path d="M178.469 7.26776V8.50524V14.243V15.5001H173.554C167.723 15.5001 165.737 17.1763 165.582 21.9691C165.575 22.1742 165.566 22.3772 165.566 22.5955C165.566 22.8115 165.575 23.0123 165.582 23.2153C165.734 28.0452 167.718 29.7213 173.554 29.7213H184V28.4642V8.50524V7.26776H178.469ZM178.469 20.856V24.3524V25.6095H173.463C171.608 25.6095 170.953 25.0049 170.842 23.2218C170.828 23.0276 170.822 22.8224 170.822 22.5998C170.822 22.375 170.831 22.1699 170.842 21.9756C170.955 20.2209 171.61 19.6207 173.463 19.6207H178.469V20.856Z" fill="white"/>
<path d="M156.188 43.6238H157.827V47.7771H159.343V43.6238H160.978V42.4256H156.188V43.6238Z" fill="white"/>
<path d="M144.617 42.4299C137.155 42.4299 135.867 44.8263 135.867 49.7697C135.867 54.8985 137.277 57.0156 144.556 57.0156H151.003V53.421H144.77C141.823 53.421 140.9 52.8666 140.839 51.0268H153.308V49.2131C153.31 44.643 151.802 42.4299 144.617 42.4299ZM148.486 48.3576H140.841V48.1721C140.841 46.2668 141.825 45.743 144.802 45.743C147.535 45.743 148.486 46.2646 148.486 48.1721V48.3576Z" fill="white"/>
<path d="M95.2472 34.5708L84.2539 57.0135H90.5177L92.5736 52.6528H104.612L106.668 57.0135H112.751L101.758 34.5708H95.2472ZM94.7255 48.0805L98.5645 39.9114L102.434 48.0805H94.7255Z" fill="white"/>
<path d="M166.505 42.4256L164.674 45.5138L162.795 42.4256H161.549V47.7771H162.943V45.0184L164.312 47.2489H164.988L166.361 44.9398L166.377 47.7771H167.767L167.756 42.4256H166.505Z" fill="white"/>
<path d="M125.425 42.7988H114.984V63.4932H120.515V57.0156H125.425C131.508 57.0156 133.409 55.2063 133.409 49.9224C133.409 44.6102 131.506 42.7988 125.425 42.7988ZM125.517 52.8994H120.515V46.9128H125.517C127.516 46.9128 128.16 47.6199 128.16 49.9203C128.16 52.1922 127.514 52.8994 125.517 52.8994Z" fill="white"/>
</svg>
