<svg width="434" height="434" viewBox="0 0 434 434" fill="none" xmlns="http://www.w3.org/2000/svg">
<rect opacity="0.2" x="125.5" y="126.5" width="181" height="181" rx="90.5" stroke="url(#paint0_linear_2080_595)"/>
<rect opacity="0.2" x="116.5" y="117.5" width="199" height="199" rx="99.5" stroke="url(#paint1_linear_2080_595)"/>
<rect opacity="0.2" x="106.5" y="107.5" width="219" height="219" rx="109.5" stroke="url(#paint2_linear_2080_595)"/>
<rect opacity="0.2" x="95.5" y="96.5" width="241" height="241" rx="120.5" stroke="url(#paint3_linear_2080_595)"/>
<rect opacity="0.2" x="81.5" y="82.5" width="269" height="269" rx="134.5" stroke="url(#paint4_linear_2080_595)"/>
<rect opacity="0.2" x="58.5" y="59.5" width="315" height="315" rx="157.5" stroke="url(#paint5_linear_2080_595)"/>
<rect opacity="0.2" x="33.5" y="34.5" width="365" height="365" rx="182.5" stroke="url(#paint6_linear_2080_595)"/>
<rect opacity="0.2" x="0.5" y="0.5" width="433" height="433" rx="216.5" stroke="url(#paint7_linear_2080_595)"/>
<defs>
<linearGradient id="paint0_linear_2080_595" x1="187.951" y1="335.016" x2="259.139" y2="316.006" gradientUnits="userSpaceOnUse">
<stop stop-color="#B6CD50"/>
<stop offset="1" stop-color="#8BFB79"/>
</linearGradient>
<linearGradient id="paint1_linear_2080_595" x1="185.176" y1="346.688" x2="263.405" y2="325.798" gradientUnits="userSpaceOnUse">
<stop stop-color="#B6CD50"/>
<stop offset="1" stop-color="#8BFB79"/>
</linearGradient>
<linearGradient id="paint2_linear_2080_595" x1="182.094" y1="359.656" x2="268.146" y2="336.678" gradientUnits="userSpaceOnUse">
<stop stop-color="#B6CD50"/>
<stop offset="1" stop-color="#8BFB79"/>
</linearGradient>
<linearGradient id="paint3_linear_2080_595" x1="178.704" y1="373.922" x2="273.36" y2="348.646" gradientUnits="userSpaceOnUse">
<stop stop-color="#B6CD50"/>
<stop offset="1" stop-color="#8BFB79"/>
</linearGradient>
<linearGradient id="paint4_linear_2080_595" x1="174.388" y1="392.078" x2="279.997" y2="363.878" gradientUnits="userSpaceOnUse">
<stop stop-color="#B6CD50"/>
<stop offset="1" stop-color="#8BFB79"/>
</linearGradient>
<linearGradient id="paint5_linear_2080_595" x1="167.299" y1="421.906" x2="290.9" y2="388.901" gradientUnits="userSpaceOnUse">
<stop stop-color="#B6CD50"/>
<stop offset="1" stop-color="#8BFB79"/>
</linearGradient>
<linearGradient id="paint6_linear_2080_595" x1="159.593" y1="454.328" x2="302.751" y2="416.101" gradientUnits="userSpaceOnUse">
<stop stop-color="#B6CD50"/>
<stop offset="1" stop-color="#8BFB79"/>
</linearGradient>
<linearGradient id="paint7_linear_2080_595" x1="150.113" y1="498.422" x2="319.869" y2="453.092" gradientUnits="userSpaceOnUse">
<stop stop-color="#B6CD50"/>
<stop offset="1" stop-color="#8BFB79"/>
</linearGradient>
</defs>
</svg>
