<svg width="55" height="55" viewBox="0 0 55 55" fill="none" xmlns="http://www.w3.org/2000/svg">
<path fill-rule="evenodd" clip-rule="evenodd" d="M28.0491 16.8537V12.2594C28.0491 6.51198 23.3878 1.85052 17.6401 1.85052C11.8927 1.85052 7.23119 6.5118 7.23119 12.2594V16.8537H9.16318V12.2594C9.16318 7.5773 12.9579 3.78274 17.6399 3.78274C22.3221 3.78274 26.119 7.57742 26.119 12.2594V16.8537H28.0491ZM34.8297 39.6173C34.4691 39.2568 34.4691 38.6721 34.8297 38.3093C35.1902 37.9488 35.7749 37.9488 36.1377 38.3093L38.2615 40.4331L43.1632 35.5314C43.5237 35.1709 44.1084 35.1709 44.4712 35.5314C44.8317 35.8919 44.8317 36.4766 44.4712 36.8394L38.9155 42.395C38.555 42.7556 37.9703 42.7556 37.6075 42.395L34.8297 39.6173ZM40.2652 23.1609C44.1015 26.5211 48.9501 28.5063 54.0434 28.7905C54.5125 28.8159 54.88 29.188 54.9124 29.6432C55.3769 35.7511 53.9556 40.868 51.5707 44.9188C48.608 49.9521 44.1547 53.3357 39.9808 54.9395C39.7567 55.0251 39.5256 55.0158 39.3176 54.9372C35.8418 53.5992 32.172 51.027 29.3316 47.2971H5.77983C2.60218 47.2971 0 44.6903 0 41.5173V22.6341C0 19.5975 2.38494 17.0739 5.38469 16.8659V12.2577C5.38469 5.48901 10.8733 0 17.6425 0C24.4116 0 29.9002 5.4886 29.9002 12.2577V16.8659C32.8999 17.0738 35.2849 19.5975 35.2849 22.6341V25.8349C36.6184 25.0769 37.8802 24.1802 39.0473 23.1541C39.4008 22.8445 39.9255 22.8537 40.2675 23.1588L40.2652 23.1609ZM28.0535 45.4483C25.4328 41.2468 23.9145 35.9546 24.3906 29.6432C24.4276 29.1602 24.8274 28.7928 25.3035 28.7882C27.8387 28.6403 30.3114 28.0741 32.6248 27.1289C32.8951 27.0179 33.1655 26.9024 33.4336 26.7799V22.6363C33.4336 20.4755 31.6703 18.703 29.5026 18.703H5.77983C3.61208 18.703 1.84881 20.4755 1.84881 22.6363V41.5195C1.84881 43.6872 3.61906 45.4505 5.77983 45.4505H28.0531L28.0535 45.4483ZM45.9849 28.8321C43.7063 27.9008 41.5709 26.632 39.6505 25.056C35.8188 28.2012 31.1276 30.1263 26.1817 30.57C25.9228 35.9223 27.2147 40.408 29.32 43.9855C29.7869 44.7781 30.0665 45.1526 30.5564 45.862C33.117 49.3562 36.4587 51.7877 39.6502 53.0886C43.3848 51.5657 47.3253 48.499 49.9805 43.9854C52.0835 40.4103 53.3777 35.9223 53.1188 30.5699C50.6553 30.3481 48.2518 29.7588 45.9827 28.8321L45.9849 28.8321ZM17.6404 24.1061C15.1885 24.1061 13.1918 26.1005 13.1918 28.5525C13.1918 29.9714 13.8666 31.2818 14.9805 32.1137V37.3874C14.9805 38.1223 15.2786 38.7879 15.7593 39.2686C17.4347 40.944 20.3027 39.7377 20.3027 37.3874V32.1137C20.7811 31.7555 21.1832 31.3048 21.486 30.7872C23.1984 27.8476 21.0769 24.1084 17.6404 24.1084V24.1061ZM17.6404 25.9549C15.5952 25.9549 14.405 28.1666 15.3918 29.8605C15.6137 30.2395 15.928 30.5585 16.307 30.7849C16.6167 30.9351 16.8293 31.2517 16.8293 31.6169V37.3851C16.8293 38.1154 17.7144 38.4643 18.2182 37.9582C18.3638 37.815 18.4516 37.6116 18.4516 37.3851V31.6169H18.454C18.454 31.2956 18.6227 30.9837 18.9208 30.8149C19.7296 30.355 20.2381 29.4999 20.2381 28.5502C20.2381 27.1081 19.0803 25.9526 17.6382 25.9526L17.6404 25.9549ZM11.0125 16.8541V12.2598C11.0125 8.5992 13.9799 5.63195 17.6404 5.63195C21.301 5.63195 24.2707 8.59926 24.2707 12.2598V16.8541H11.0125Z" fill="url(#paint0_linear_2138_854)"/>
<defs>
<linearGradient id="paint0_linear_2138_854" x1="19.0235" y1="63.1641" x2="40.5364" y2="57.4195" gradientUnits="userSpaceOnUse">
<stop stop-color="#B6CD50"/>
<stop offset="1" stop-color="#8BFB79"/>
</linearGradient>
</defs>
</svg>
