<svg width="44" height="44" viewBox="0 0 44 44" fill="none" xmlns="http://www.w3.org/2000/svg">
<path d="M22 0C9.87 0 0 9.87 0 22V25.74L3.74 23.25C6.34 21.52 9.68 21.52 12.28 23.26L16 25.72V22C16 11.01 19.55 4 22 4C24.19 4 27.26 9.63 27.88 18.7L27.28 18.4C25.66 17.58 23.83 17.14 21.99 17.14H19.99V38C19.99 38.53 19.78 39.04 19.42 39.41C19.04 39.79 18.53 40 18 40C16.9 40 16 39.1 16 38V36H12V38C12 41.31 14.69 44 18 44C19.59 44 21.09 43.38 22.25 42.23C23.38 41.09 24 39.59 24 38V21.4C24.51 21.54 25.01 21.73 25.48 21.97L30.23 24.36L31.23 23.59C33.64 21.73 37.17 21.49 39.82 23.05L44 25.49V22C44 9.87 34.13 0 22 0ZM12.11 18.7C10.79 18.2 9.4 17.95 8 17.95C6.76 17.95 5.52 18.15 4.33 18.54C5.51 12.49 9.74 7.51 15.35 5.27C13.54 8.79 12.45 13.68 12.11 18.7ZM31.89 18.72C31.56 13.7 30.46 8.81 28.65 5.29C34.27 7.54 38.51 12.52 39.68 18.6C37.17 17.75 34.38 17.82 31.89 18.72Z" fill="#D1E070"/>
</svg>
