<svg width="45" height="55" viewBox="0 0 45 55" fill="none" xmlns="http://www.w3.org/2000/svg">
<path d="M17.3965 47.3174C16.2739 47.3174 15.364 48.2059 15.364 49.3037C15.364 50.4035 16.2739 51.296 17.3965 51.292C18.5185 51.292 19.4291 50.4035 19.4291 49.3037C19.4291 48.2059 18.5192 47.3174 17.3965 47.3174ZM2.19266 46.1789H32.6004V49.751C32.6004 51.6499 31.1622 52.8064 29.0776 52.8064H5.71212C3.73226 52.8064 2.19266 51.2927 2.19266 49.3904V46.1789ZM22.4102 24.5335C22.3962 24.5335 22.3856 24.5335 22.3715 24.5335H20.2249C19.5992 24.5055 19.0782 25.0061 19.0782 25.6307C19.0782 26.2552 19.5992 26.7525 20.2249 26.7238H22.3715C22.9866 26.7485 23.5042 26.2626 23.5149 25.648C23.5256 25.0334 23.0253 24.5309 22.4102 24.5335ZM16.9209 24.5335C16.9069 24.5335 16.8969 24.5335 16.8829 24.5335H11.5497C10.9246 24.5055 10.403 25.0061 10.403 25.6307C10.403 26.2552 10.9246 26.7525 11.5497 26.7238H16.8829C17.4973 26.7485 18.0116 26.2626 18.0222 25.648C18.0329 25.0334 17.5353 24.5309 16.9209 24.5335ZM12.3208 19.1698C12.3068 19.1698 12.2968 19.1698 12.2821 19.1698H9.00278C8.96743 19.1698 8.93007 19.1698 8.89405 19.1698C7.43183 19.2425 7.53923 21.4334 9.00278 21.3608H12.2821C12.8965 21.3854 13.4115 20.8995 13.4215 20.2843C13.4361 19.6698 12.9352 19.1658 12.3208 19.1698ZM32.8999 17.8054C32.2949 17.8121 31.8086 18.3093 31.8153 18.9166V20.1383C30.8914 20.409 30.1336 20.9715 29.6793 21.7281C29.1783 22.5692 29.0816 23.6864 29.5819 24.6275C30.0822 25.5714 31.0755 26.2659 32.441 26.6305C33.3375 26.8691 33.7164 27.2557 33.8658 27.5503C34.0153 27.8489 33.9972 28.1202 33.8278 28.4115C33.4869 28.9981 32.3783 29.6926 30.239 28.6335C29.6933 28.3628 29.0362 28.5848 28.7654 29.126C28.4986 29.6679 28.7214 30.3272 29.2624 30.5951C30.1483 31.0357 31.0174 31.265 31.8159 31.3203V32.3481C31.8159 32.956 32.3096 33.4453 32.9173 33.4453C33.5216 33.4453 34.0153 32.956 34.0153 32.3481V30.977C34.7517 30.6651 35.3461 30.1618 35.721 29.516C36.2313 28.6375 36.3073 27.5163 35.821 26.5578C35.3347 25.5993 34.3448 24.8735 33.0107 24.5162C32.0441 24.2556 31.6585 23.8663 31.5197 23.6037C31.381 23.3431 31.3977 23.1305 31.5618 22.8565C31.888 22.3086 32.9513 21.6654 34.671 22.5579C35.2167 22.8805 35.9217 22.6825 36.2099 22.1206C36.5028 21.5581 36.2593 20.8669 35.6796 20.6129C35.1166 20.321 34.5569 20.141 34.0153 20.0404V18.9152C34.0206 18.2987 33.5176 17.7948 32.8999 17.8054ZM32.455 13.101C32.1108 13.101 31.7666 13.1149 31.423 13.1429C27.4826 13.4729 23.8384 15.6665 21.7258 19.1692H16.1244C16.0864 19.1692 16.0484 19.1692 16.0097 19.1692C14.5475 19.2452 14.6622 21.4361 16.1244 21.3601H22.2088C22.4489 21.3708 22.6844 21.3048 22.8792 21.1688C23.098 21.0648 23.2721 20.8915 23.3835 20.6769C25.6509 16.5177 30.4464 14.438 35.0359 15.6178C39.6293 16.7983 42.8253 20.9295 42.8072 25.6647C42.7906 30.4031 39.5626 34.5137 34.9625 35.6595C30.3624 36.8053 25.5855 34.687 23.3475 30.5111C23.1814 30.2018 22.8752 29.9905 22.525 29.9446C22.4236 29.9139 22.3155 29.8966 22.2081 29.8966H15.1872C14.5682 29.8792 14.0578 30.3751 14.0578 30.993C14.0578 31.6109 14.5682 32.1075 15.1872 32.0902H21.7325C24.5569 36.7773 30.1369 39.1176 35.4948 37.7845C41.0569 36.3987 44.9792 31.403 44.9999 25.6753C45.0213 19.9464 41.1362 14.9233 35.5849 13.4969C34.5422 13.2296 33.4936 13.101 32.455 13.101ZM15.0651 5.07841C14.4474 5.06041 13.9358 5.55766 13.9358 6.17488C13.9358 6.7941 14.4474 7.29001 15.0651 7.27268H19.7279C20.3457 7.28934 20.8573 6.79343 20.8573 6.17488C20.8573 5.55766 20.3457 5.06041 19.7279 5.07841H15.0651ZM5.71212 0C2.57889 0 0 2.50954 0 5.61031V49.3897C0 52.4931 2.57823 55 5.71212 55H29.0776C32.1074 55 34.7931 52.8511 34.7931 49.751V40.9779C34.8204 40.3527 34.3201 39.8321 33.6951 39.8321C33.0694 39.8321 32.5731 40.3527 32.6004 40.9779V43.9887H2.19266V5.61031C2.19266 3.71066 3.73226 2.1976 5.71212 2.1976H29.0776C31.0608 2.1976 32.6004 3.71133 32.6004 5.61031V9.82088C32.5731 10.4461 33.0694 10.9667 33.6951 10.9667C34.3201 10.9667 34.8211 10.4461 34.7931 9.82088V5.61031C34.7931 2.50954 32.2108 0 29.0776 0H5.71212Z" fill="url(#paint0_linear_2138_852)"/>
<defs>
<linearGradient id="paint0_linear_2138_852" x1="15.5647" y1="63.1641" x2="33.5622" y2="59.232" gradientUnits="userSpaceOnUse">
<stop stop-color="#B6CD50"/>
<stop offset="1" stop-color="#8BFB79"/>
</linearGradient>
</defs>
</svg>
