<svg width="29" height="29" viewBox="0 0 29 29" fill="none" xmlns="http://www.w3.org/2000/svg">
<path fill-rule="evenodd" clip-rule="evenodd" d="M14.4731 3.10813C13.6071 3.09249 12.7466 3.24776 11.9408 3.56505C11.1349 3.88235 10.3996 4.35543 9.77676 4.95724C9.15396 5.55905 8.65595 6.27776 8.31124 7.07224C7.96653 7.86672 7.78188 8.72138 7.76786 9.58731V18.6432C7.76786 19.1926 7.54962 19.7195 7.16115 20.1079C6.77268 20.4964 6.24581 20.7146 5.69643 20.7146H3.10714C2.28308 20.7146 1.49276 20.3873 0.910061 19.8046C0.327359 19.2219 0 18.4316 0 17.6076L0 13.4649C0 12.6408 0.327359 11.8506 0.910061 11.2679C1.49276 10.6852 2.28308 10.3578 3.10714 10.3578H4.66071V9.55002C4.67961 8.27696 4.94912 7.02008 5.45385 5.85119C5.95858 4.68229 6.68863 3.62426 7.60232 2.73753C8.51601 1.85081 9.59544 1.15275 10.779 0.683227C11.9625 0.213705 13.2269 -0.0180834 14.5 0.00110054C15.7731 -0.0180834 17.0375 0.213705 18.221 0.683227C19.4046 1.15275 20.484 1.85081 21.3977 2.73753C22.3114 3.62426 23.0414 4.68229 23.5462 5.85119C24.0509 7.02008 24.3204 8.27696 24.3393 9.55002V10.3578H25.8929C26.7169 10.3578 27.5072 10.6852 28.0899 11.2679C28.6726 11.8506 29 12.6408 29 13.4649V17.6076C29 18.4316 28.6726 19.2219 28.0899 19.8046C27.5072 20.3873 26.7169 20.7146 25.8929 20.7146H24.3393V21.7503C24.3396 23.15 23.8244 24.5008 22.8922 25.545C21.9599 26.5891 20.6759 27.2535 19.285 27.4113C19.0149 27.8935 18.621 28.295 18.144 28.5742C17.667 28.8535 17.1242 29.0005 16.5714 29H13.4643C12.6402 29 11.8499 28.6727 11.2672 28.09C10.6845 27.5073 10.3571 26.717 10.3571 25.893C10.3571 25.0689 10.6845 24.2787 11.2672 23.696C11.8499 23.1133 12.6402 22.7859 13.4643 22.7859H16.5714C17.6941 22.7859 18.6781 23.3804 19.2229 24.2732C19.7938 24.142 20.3034 23.821 20.6683 23.3628C21.0333 22.9045 21.232 22.3361 21.2321 21.7503V9.58524C21.2179 8.71485 21.0313 7.85592 20.6831 7.05809C20.3349 6.26026 19.832 5.53936 19.2035 4.93706C18.575 4.33476 17.8333 3.86302 17.0214 3.54909C16.2094 3.23517 15.3433 3.08529 14.4731 3.10813Z" fill="#D1E070"/>
</svg>
