<svg width="26" height="29" viewBox="0 0 26 29" fill="none" xmlns="http://www.w3.org/2000/svg">
<path d="M21.4115 3.52384e-07C20.7091 -0.000274622 20.016 0.160381 19.3856 0.469588C18.7552 0.778794 18.2043 1.2283 17.7755 1.78345C17.3467 2.33861 17.0513 2.98459 16.9122 3.67163C16.773 4.35867 16.7938 5.06842 16.9729 5.74617C16.8625 5.77055 16.7559 5.8101 16.6563 5.86369L12.4395 8.15758L7.07711 11.2176C7.02408 11.2491 6.973 11.2838 6.92416 11.3214C6.17814 10.8812 5.32243 10.6608 4.45609 10.6857C3.58974 10.7107 2.74819 10.98 2.02887 11.4624C1.30954 11.9449 0.741861 12.6207 0.391537 13.4118C0.0412132 14.2028 -0.0774229 15.0767 0.0493626 15.9322C0.176148 16.7878 0.54317 17.59 1.10794 18.246C1.67271 18.902 2.41213 19.385 3.2406 19.6391C4.06906 19.8931 4.9527 19.9078 5.7892 19.6815C6.62571 19.4552 7.38087 18.9971 7.96727 18.3603L12.4426 20.8434L16.9607 23.3021C16.8689 23.6613 16.823 24.0342 16.823 24.4208C16.8229 25.4866 17.1954 26.5191 17.8763 27.3402C18.5572 28.1613 19.5038 28.7197 20.553 28.9191C21.6023 29.1185 22.6883 28.9465 23.624 28.4326C24.5597 27.9186 25.2865 27.0951 25.679 26.1039C26.0714 25.1127 26.1051 24.0159 25.7741 23.0026C25.4432 21.9893 24.7683 21.1229 23.8659 20.5528C22.9634 19.9827 21.89 19.7446 20.8305 19.8796C19.771 20.0146 18.7919 20.5141 18.0619 21.2921L13.553 18.8395L9.0471 16.3426C9.32236 15.2093 9.15387 14.0139 8.57601 13.0002L13.5591 10.1584L17.7545 7.8737C17.8537 7.81889 17.9448 7.75057 18.0252 7.67072C18.5405 8.23225 19.188 8.65669 19.9091 8.90562C20.6302 9.15455 21.4021 9.22011 22.155 9.09637C22.9079 8.97264 23.6179 8.6635 24.2209 8.19695C24.8239 7.73041 25.3008 7.12117 25.6084 6.4244C25.916 5.72762 26.0446 4.9653 25.9826 4.20644C25.9206 3.44757 25.6699 2.71612 25.2532 2.07829C24.8365 1.44046 24.267 0.916381 23.5962 0.553495C22.9254 0.190609 22.1745 0.000371506 21.4115 3.52384e-07Z" fill="#D1E070"/>
</svg>
