<svg width="27" height="28" viewBox="0 0 27 28" fill="none" xmlns="http://www.w3.org/2000/svg">
<path fill-rule="evenodd" clip-rule="evenodd" d="M13.7612 0.00044626C10.9614 -0.0263779 7.63306 1.16093 5.14019 2.25086C3.86557 2.80852 2.75173 3.36616 1.958 3.78547C1.55969 3.99442 1.24103 4.17089 1.01944 4.2937C0.909359 4.35582 0.822456 4.40523 0.763069 4.43911L0.693545 4.48006L0.674715 4.48994L0.67037 4.49417H0.667473C0.667473 4.49559 0.667472 4.49559 1.35549 5.60948L0.667473 4.49558C0.279285 4.72288 0.0359676 5.12807 0.0214695 5.56856C-0.168275 11.464 0.900667 16.075 3.18919 19.7275C5.48205 23.3825 8.91059 25.9421 13.1863 27.8793C13.5426 28.0402 13.9539 28.0402 14.3117 27.8793C18.6092 25.9338 21.9175 23.3673 24.0785 19.7007C26.228 16.0497 27.1579 11.4474 26.9783 5.57435C26.9638 5.1367 26.7262 4.73434 26.3439 4.50563L25.6428 5.61388C26.3439 4.50563 26.3439 4.50563 26.3424 4.50563V4.50422H26.341L26.3352 4.49998L26.3178 4.4901L26.2512 4.45057C26.1947 4.41669 26.1121 4.36869 26.0049 4.30798C25.7935 4.18656 25.4864 4.01433 25.1054 3.80821C24.3436 3.39598 23.2761 2.84535 22.0521 2.29336C19.6608 1.21333 16.4625 0.0244806 13.7612 0.00044626ZM5.4676 18.3706C3.61072 15.4073 2.6026 11.5572 2.67357 6.37189C2.83145 6.28577 3.0183 6.18554 3.22832 6.074C3.98004 5.67869 5.03306 5.15069 6.23382 4.62551C8.69469 3.54971 11.5625 2.58126 13.7365 2.6024C15.8208 2.62075 18.5684 3.58925 20.9293 4.65374C22.0808 5.17469 23.0889 5.69423 23.8102 6.08387C24.0043 6.18834 24.1766 6.28293 24.3244 6.36623C24.4011 11.5855 23.506 15.444 21.7621 18.4047C20.0356 21.3356 17.4037 23.5141 13.748 25.2576C10.0777 23.5098 7.31417 21.3173 5.4676 18.3706ZM19.5839 10.7892C20.0705 10.2498 20.0155 9.42819 19.4622 8.95383C18.9089 8.47947 18.0659 8.53169 17.5792 9.07101L12.3113 14.9115L9.4362 12.0766C8.91768 11.5656 8.07178 11.5613 7.54743 12.0668C7.02309 12.5722 7.01875 13.3953 7.53729 13.9063L11.4207 17.7323C11.6799 17.9892 12.0377 18.129 12.4085 18.1177C12.7778 18.1078 13.1269 17.9483 13.3717 17.6772L19.5839 10.7892Z" fill="white"/>
</svg>
